<svg width="50" height="50" viewBox="0 0 50 50" fill="none" xmlns="http://www.w3.org/2000/svg">
<g clip-path="url(#clip0_291_303)">
<path d="M25 50C38.8071 50 50 38.8071 50 25C50 11.1929 38.8071 0 25 0C11.1929 0 0 11.1929 0 25C0 38.8071 11.1929 50 25 50Z" fill="url(#paint0_linear_291_303)"/>
<path d="M26.3584 37.4023C22.8038 37.3584 19.7608 36.1396 17.2764 33.6748C14.7247 31.1357 13.4014 28.0293 13.4942 24.4102C13.6172 19.6143 15.8204 15.9883 19.8965 13.501C21.543 12.4961 23.3584 11.9697 25.2813 11.8213C25.7403 11.7852 25.8575 11.9531 25.6768 12.376C25.0264 13.8696 24.6939 15.4822 24.7002 17.1113C24.7227 20.3096 25.794 23.1191 27.9903 25.457C30.254 27.8672 33.0518 29.168 36.3653 29.3262C36.7696 29.3457 37.1768 29.3262 37.5821 29.3262C38.0411 29.3262 38.1612 29.4902 37.9727 29.8955C36.7852 32.4482 34.9688 34.4238 32.504 35.791C30.6253 36.8406 28.5105 37.3951 26.3584 37.4023Z" fill="white"/>
</g>
<defs>
<linearGradient id="paint0_linear_291_303" x1="7.32227" y1="7.32227" x2="42.6777" y2="42.6777" gradientUnits="userSpaceOnUse">
<stop stop-color="#43BCFF"/>
<stop offset="1" stop-color="#0149ED"/>
</linearGradient>
<clipPath id="clip0_291_303">
<rect width="50" height="50" fill="white"/>
</clipPath>
</defs>
</svg>
