<svg width="50" height="50" viewBox="0 0 50 50" fill="none" xmlns="http://www.w3.org/2000/svg">
<g clip-path="url(#clip0_292_310)">
<circle cx="25" cy="25" r="20" fill="white"/>
<path d="M25 0C20.0555 0 15.222 1.46622 11.1108 4.21326C6.99953 6.96029 3.79521 10.8648 1.90302 15.4329C0.0108323 20.0011 -0.484251 25.0277 0.480379 29.8773C1.44501 34.7268 3.82603 39.1814 7.32234 42.6777C10.8187 46.174 15.2732 48.555 20.1227 49.5196C24.9723 50.4843 29.9989 49.9892 34.5671 48.097C39.1352 46.2048 43.0397 43.0005 45.7867 38.8892C48.5338 34.778 50 29.9445 50 25C49.9919 18.3721 47.3554 12.0179 42.6688 7.33125C37.9821 2.64459 31.6279 0.00807352 25 0ZM32.5667 14.575L35.4167 11.7333C35.794 11.3588 36.3043 11.149 36.836 11.1499C37.3676 11.1509 37.8773 11.3625 38.2532 11.7385C38.6291 12.1144 38.8408 12.624 38.8417 13.1557C38.8427 13.6873 38.6329 14.1977 38.2583 14.575L35.4167 17.425C35.0359 17.7976 34.5244 18.0063 33.9917 18.0063C33.4589 18.0063 32.9474 17.7976 32.5667 17.425C32.3794 17.2379 32.2309 17.0158 32.1295 16.7713C32.0282 16.5268 31.976 16.2647 31.976 16C31.976 15.7353 32.0282 15.4732 32.1295 15.2287C32.2309 14.9842 32.3794 14.7621 32.5667 14.575ZM22.975 8.25C22.9816 7.72062 23.1966 7.21518 23.5733 6.84318C23.95 6.47118 24.4581 6.26259 24.9875 6.26259C25.5169 6.26259 26.025 6.47118 26.4017 6.84318C26.7784 7.21518 26.9934 7.72062 27 8.25V12.2667C26.9934 12.796 26.7784 13.3015 26.4017 13.6735C26.025 14.0455 25.5169 14.2541 24.9875 14.2541C24.4581 14.2541 23.95 14.0455 23.5733 13.6735C23.1966 13.3015 22.9816 12.796 22.975 12.2667V8.25ZM14.5583 11.7333L17.4083 14.575C17.5961 14.762 17.7451 14.9842 17.8469 15.2288C17.9487 15.4735 18.0012 15.7358 18.0014 16.0008C18.0017 16.2658 17.9497 16.5283 17.8484 16.7731C17.7471 17.018 17.5986 17.2405 17.4112 17.4278C17.2238 17.6152 17.0013 17.7638 16.7565 17.8651C16.5116 17.9664 16.2492 18.0184 15.9842 18.0181C15.7192 18.0178 15.4569 17.9653 15.2122 17.8635C14.9675 17.7618 14.7453 17.6127 14.5583 17.425L11.725 14.575C11.3543 14.198 11.1474 13.6899 11.1493 13.1612C11.1511 12.6325 11.3616 12.1259 11.7349 11.7515C12.1082 11.3771 12.6142 11.1652 13.1429 11.1618C13.6716 11.1584 14.1802 11.3638 14.5583 11.7333ZM8.23334 22.9917H12.2583C12.791 22.9917 13.3018 23.2033 13.6784 23.5799C14.0551 23.9565 14.2667 24.4674 14.2667 25C14.2667 25.5326 14.0551 26.0435 13.6784 26.4201C13.3018 26.7967 12.791 27.0083 12.2583 27.0083H8.23334C7.70483 27.0021 7.2001 26.7877 6.82858 26.4117C6.45707 26.0358 6.24872 25.5285 6.24872 25C6.24872 24.4714 6.45707 23.9642 6.82858 23.5882C7.2001 23.2123 7.70483 22.9979 8.23334 22.9917ZM17.4083 35.425L14.5583 38.2667C14.1805 38.6377 13.6714 38.8443 13.1419 38.8416C12.6124 38.8388 12.1054 38.6268 11.7315 38.2518C11.3577 37.8768 11.1472 37.3693 11.1459 36.8398C11.1447 36.3102 11.3529 35.8017 11.725 35.425L14.5583 32.575C14.9369 32.1999 15.4485 31.99 15.9814 31.9912C16.5144 31.9924 17.0251 32.2046 17.4019 32.5814C17.7787 32.9583 17.9909 33.469 17.9922 34.0019C17.9934 34.5348 17.7834 35.0465 17.4083 35.425ZM27 41.75C26.9934 42.2794 26.7784 42.7848 26.4017 43.1568C26.025 43.5288 25.5169 43.7374 24.9875 43.7374C24.4581 43.7374 23.95 43.5288 23.5733 43.1568C23.1966 42.7848 22.9816 42.2794 22.975 41.75V37.7333C22.9816 37.204 23.1966 36.6985 23.5733 36.3265C23.95 35.9545 24.4581 35.7459 24.9875 35.7459C25.5169 35.7459 26.025 35.9545 26.4017 36.3265C26.7784 36.6985 26.9934 37.204 27 37.7333V41.75ZM24.9917 34.0417C23.2034 34.0417 21.4553 33.5114 19.9684 32.5179C18.4815 31.5244 17.3226 30.1122 16.6383 28.4601C15.9539 26.8079 15.7749 24.99 16.1237 23.2361C16.4726 21.4821 17.3338 19.8711 18.5983 18.6066C19.8627 17.3421 21.4738 16.4809 23.2277 16.1321C24.9816 15.7832 26.7996 15.9622 28.4518 16.6466C30.1039 17.3309 31.516 18.4898 32.5095 19.9767C33.5031 21.4636 34.0333 23.2117 34.0333 25C34.0294 27.3968 33.0755 29.6943 31.3807 31.3891C29.686 33.0838 27.3885 34.0377 24.9917 34.0417ZM35.4167 38.2667L32.5667 35.425C32.1921 35.0464 31.9826 34.5348 31.984 34.0022C31.9855 33.4696 32.1977 32.9592 32.5743 32.5826C32.9509 32.206 33.4613 31.9938 33.9939 31.9924C34.5265 31.9909 35.038 32.2004 35.4167 32.575L38.2583 35.425C38.6352 35.8018 38.8469 36.3129 38.8469 36.8458C38.8469 37.3787 38.6352 37.8898 38.2583 38.2667C37.8815 38.6435 37.3704 38.8552 36.8375 38.8552C36.3046 38.8552 35.7935 38.6435 35.4167 38.2667ZM41.7417 27.0083H37.7167C37.1882 27.0021 36.6834 26.7877 36.3119 26.4117C35.9404 26.0358 35.7321 25.5285 35.7321 25C35.7321 24.4714 35.9404 23.9642 36.3119 23.5882C36.6834 23.2123 37.1882 22.9979 37.7167 22.9917H41.7417C42.2743 22.9917 42.7851 23.2033 43.1618 23.5799C43.5384 23.9565 43.75 24.4674 43.75 25C43.75 25.5326 43.5384 26.0435 43.1618 26.4201C42.7851 26.7967 42.2743 27.0083 41.7417 27.0083Z" fill="url(#paint0_linear_292_310)"/>
</g>
<defs>
<linearGradient id="paint0_linear_292_310" x1="1.12466e-05" y1="25" x2="50" y2="25" gradientUnits="userSpaceOnUse">
<stop stop-color="#DADE14"/>
<stop offset="1" stop-color="#C9CD07"/>
</linearGradient>
<clipPath id="clip0_292_310">
<rect width="50" height="50" fill="white"/>
</clipPath>
</defs>
</svg>
