<?xml version="1.0" standalone="no"?>
<!DOCTYPE svg PUBLIC "-//W3C//DTD SVG 20010904//EN"
 "http://www.w3.org/TR/2001/REC-SVG-20010904/DTD/svg10.dtd">
<svg version="1.0" xmlns="http://www.w3.org/2000/svg"
 width="99.000000pt" height="99.000000pt" viewBox="0 0 99.000000 99.000000"
 preserveAspectRatio="xMidYMid meet">

<g transform="translate(0.000000,99.000000) scale(0.100000,-0.100000)"
fill="#000000" stroke="none">
<path d="M81 946 c-44 -25 -50 -50 -51 -218 0 -154 0 -157 26 -187 l26 -31
163 0 c151 0 164 2 189 21 39 30 46 57 37 135 l-8 69 -2 -68 c-1 -66 -12 -104
-35 -119 -6 -4 -81 -8 -167 -8 -137 0 -158 2 -172 18 -23 26 -26 327 -4 350
12 11 51 16 174 19 180 6 191 2 203 -63 l8 -39 1 36 c2 65 -23 83 -126 91
-143 10 -236 8 -262 -6z"/>
<path d="M538 931 l-33 -29 3 -164 c2 -121 7 -169 18 -185 17 -26 65 -41 108
-33 28 4 26 5 -14 8 -29 2 -53 11 -67 24 -22 20 -23 29 -23 173 0 208 -12 195
194 195 143 0 165 -2 179 -18 13 -14 16 -46 18 -177 1 -153 1 -159 -21 -177
-14 -11 -39 -18 -68 -18 -25 0 -43 -3 -39 -6 3 -3 27 -6 53 -6 37 0 52 6 73
26 25 26 26 30 29 177 6 237 4 239 -220 239 l-158 0 -32 -29z"/>
<path d="M247 803 c-4 -3 -7 -17 -7 -29 0 -17 -7 -23 -27 -26 -38 -4 -42 -28
-4 -28 26 0 30 -4 33 -32 4 -46 28 -49 28 -4 0 35 1 36 36 36 45 0 42 24 -4
28 -28 3 -32 7 -32 33 0 28 -9 37 -23 22z"/>
<path d="M647 744 c-19 -19 1 -24 89 -24 72 0 95 3 92 13 -5 13 -168 23 -181
11z"/>
<path d="M563 476 c-51 -23 -56 -42 -51 -217 4 -150 5 -159 28 -184 13 -14 28
-25 34 -24 6 0 5 3 -2 6 -32 13 -39 55 -33 211 5 137 8 155 25 168 15 11 56
14 167 14 201 0 192 9 197 -189 4 -148 4 -153 -18 -177 -20 -21 -33 -24 -89
-24 -46 0 -62 -3 -51 -10 21 -14 104 -12 135 2 47 21 55 53 55 221 l0 153 -31
30 -30 29 -152 2 c-114 2 -160 -1 -184 -11z"/>
<path d="M95 470 c-11 -4 -29 -18 -40 -30 -18 -20 -20 -36 -20 -191 0 -226
-13 -213 215 -217 l170 -3 30 30 30 29 0 157 c0 193 -13 226 -90 223 l-35 -1
31 -4 c63 -8 69 -27 66 -197 -5 -209 8 -196 -192 -196 -212 0 -200 -11 -200
195 0 192 2 195 112 195 39 0 69 2 67 4 -9 8 -125 13 -144 6z"/>
<path d="M190 329 c0 -6 11 -25 24 -42 l24 -32 -29 -35 c-21 -24 -26 -37 -18
-45 8 -7 18 0 36 23 l26 33 33 -32 c32 -31 60 -34 39 -5 -50 68 -49 62 -21 99
14 19 26 37 26 40 0 16 -23 5 -46 -23 l-26 -30 -25 30 c-25 31 -43 38 -43 19z"/>
<path d="M640 295 c0 -13 14 -15 93 -13 53 2 92 7 92 13 0 6 -39 11 -92 13
-79 2 -93 0 -93 -13z"/>
<path d="M640 220 c0 -6 38 -10 95 -10 57 0 95 4 95 10 0 6 -38 10 -95 10 -57
0 -95 -4 -95 -10z"/>
<path d="M598 43 c7 -3 16 -2 19 1 4 3 -2 6 -13 5 -11 0 -14 -3 -6 -6z"/>
</g>
</svg>
