<svg width="50" height="50" viewBox="0 0 50 50" fill="none" xmlns="http://www.w3.org/2000/svg">
<g clip-path="url(#clip0_295_370)">
<path d="M25 50C38.8071 50 50 38.8071 50 25C50 11.1929 38.8071 0 25 0C11.1929 0 0 11.1929 0 25C0 38.8071 11.1929 50 25 50Z" fill="white"/>
<path fill-rule="evenodd" clip-rule="evenodd" d="M18.7913 18.9704L15.6188 21.5992H12.1807C11.5287 21.5992 11 22.128 11 22.7802V27.4843C11 28.1363 11.5287 28.6653 12.1807 28.6647H15.6186L22.0734 34.0135C22.2895 34.1926 22.5569 34.2854 22.8268 34.2854C22.9973 34.2854 23.1689 34.2488 23.329 34.1731C23.7432 33.9789 24.0078 33.5627 24.0078 33.1047L24.008 23.466L18.7913 18.9704ZM28.3782 27.232C28.151 27.9394 27.8073 28.6091 27.3537 29.2206C27.005 29.6906 27.0536 30.3454 27.4678 30.7587L27.6257 30.9171C27.8478 31.1396 28.1485 31.2628 28.4604 31.2628C28.4889 31.2628 28.5166 31.2617 28.5453 31.2598C28.8871 31.2354 29.2012 31.0633 29.4066 30.7892C29.8228 30.2324 30.1726 29.64 30.4532 29.0202L28.3782 27.232ZM31.2517 25.9471L28.5371 23.6078C28.3081 22.589 27.8473 21.6391 27.1721 20.8073C26.7904 20.3378 26.8256 19.6559 27.2534 19.2283L27.411 19.0705C27.6469 18.8346 27.963 18.706 28.305 18.7264C28.6381 18.7432 28.9492 18.9 29.1604 19.1582C30.5513 20.8601 31.286 22.9264 31.286 25.133C31.286 25.4063 31.2745 25.6778 31.2517 25.9471ZM32.8981 31.1271C32.4952 31.8713 32.0162 32.5771 31.4657 33.2319C31.0716 33.7008 31.101 34.3936 31.5344 34.8267L31.6895 34.9818C31.9117 35.204 32.2118 35.3275 32.5245 35.3275C32.5413 35.3275 32.5578 35.327 32.574 35.3264C32.9046 35.3124 33.2134 35.161 33.4269 34.9086C33.9746 34.2598 34.4639 33.569 34.8915 32.845L32.8981 31.1271ZM36.1412 30.1607L34.007 28.3215C34.2785 27.2869 34.4189 26.2153 34.4189 25.1327C34.4189 22.0556 33.2958 19.0934 31.2572 16.7918C30.8439 16.3245 30.8648 15.6172 31.3047 15.1757L31.4595 15.0206C31.6892 14.7898 31.9877 14.6626 32.33 14.6735C32.655 14.6827 32.9624 14.8264 33.1784 15.0695C35.6427 17.8439 37 21.4182 37 25.1327C37.0003 26.8563 36.7052 28.5563 36.1412 30.1607ZM24.0081 19.7048L21.0163 17.1266L22.0737 16.2505C22.4264 15.9582 22.9154 15.8958 23.3293 16.0915C23.7432 16.2857 24.0081 16.7021 24.0081 17.1598L24.0081 19.7048Z" fill="#BABABA"/>
<rect x="12.8252" y="12" width="34.9791" height="2.12361" rx="1.0618" transform="rotate(40.7536 12.8252 12)" fill="#BABABA"/>
</g>
<defs>
<clipPath id="clip0_295_370">
<rect width="50" height="50" fill="white"/>
</clipPath>
</defs>
</svg>
