<svg width="50" height="50" viewBox="0 0 50 50" fill="none" xmlns="http://www.w3.org/2000/svg">
<g clip-path="url(#clip0_295_392)">
<path d="M25 50C38.8071 50 50 38.8071 50 25C50 11.1929 38.8071 0 25 0C11.1929 0 0 11.1929 0 25C0 38.8071 11.1929 50 25 50Z" fill="url(#paint0_linear_295_392)"/>
<path d="M24.0078 33.1047C24.0078 33.5627 23.7432 33.9789 23.329 34.1731C23.1689 34.2488 22.9973 34.2854 22.8268 34.2854C22.5569 34.2854 22.2895 34.1926 22.0734 34.0135L15.6186 28.6647H12.1807C11.5287 28.6653 11 28.1363 11 27.4843V22.7802C11 22.128 11.5287 21.5992 12.1807 21.5992H15.6188L22.0737 16.2505C22.4264 15.9582 22.9154 15.8958 23.3293 16.0915C23.7432 16.2857 24.0081 16.7021 24.0081 17.1598L24.0078 33.1047ZM28.5453 31.2598C28.5166 31.2617 28.4889 31.2628 28.4604 31.2628C28.1485 31.2628 27.8478 31.1396 27.6257 30.9171L27.4678 30.7587C27.0536 30.3454 27.005 29.6906 27.3537 29.2206C28.2379 28.0284 28.7046 26.6152 28.7046 25.1327C28.7046 23.5381 28.1748 22.0425 27.1721 20.8073C26.7904 20.3378 26.8256 19.6559 27.2534 19.2283L27.411 19.0705C27.6469 18.8346 27.963 18.706 28.305 18.7264C28.6381 18.7432 28.9492 18.9 29.1604 19.1582C30.5513 20.8601 31.286 22.9264 31.286 25.133C31.286 27.1881 30.6362 29.1443 29.4066 30.7892C29.2012 31.0633 28.8871 31.2354 28.5453 31.2598ZM33.4269 34.9086C33.2134 35.161 32.9046 35.3124 32.574 35.3264C32.5578 35.327 32.5413 35.3275 32.5245 35.3275C32.2118 35.3275 31.9117 35.204 31.6895 34.9818L31.5344 34.8267C31.101 34.3936 31.0716 33.7008 31.4657 33.2319C33.3699 30.9672 34.4189 28.091 34.4189 25.1327C34.4189 22.0556 33.2958 19.0934 31.2572 16.7918C30.8439 16.3245 30.8648 15.6172 31.3047 15.1757L31.4595 15.0206C31.6892 14.7898 31.9877 14.6626 32.33 14.6735C32.655 14.6827 32.9624 14.8264 33.1784 15.0695C35.6427 17.8439 37 21.4182 37 25.1327C37.0006 28.7066 35.7315 32.1786 33.4269 34.9086Z" fill="white"/>
</g>
<defs>
<linearGradient id="paint0_linear_295_392" x1="7.32227" y1="7.32227" x2="42.6777" y2="42.6777" gradientUnits="userSpaceOnUse">
<stop stop-color="#32CEFF"/>
<stop offset="1" stop-color="#17C0F5"/>
</linearGradient>
<clipPath id="clip0_295_392">
<rect width="50" height="50" fill="white"/>
</clipPath>
</defs>
</svg>
